<svg id="Слой_1" data-name="Слой 1" xmlns="http://www.w3.org/2000/svg" viewBox="0 0 1270.75 1267.72"><title>bomb</title><circle cx="637.35" cy="638.88" r="468.08"/><polygon points="1181.18 974.7 868.41 859.65 997.57 1166.86 758.64 934.54 751.68 1267.72 627.89 958.31 486.02 1259.86 498.78 926.85 246.53 1144.62 393.63 845.59 74.61 941.93 330.63 728.59 0 686.84 320.65 596.08 35.59 423.46 365.44 470.96 175.24 197.32 457.25 374.88 394.78 47.54 580.19 324.45 656.27 0 713.02 328.38 914.49 62.93 832.77 386 1124.79 225.44 918.72 487.35 1250.81 459.45 956.03 614.89 1270.75 724.47 938.23 746.58 1181.18 974.7"/></svg>