<svg id="Слой_1" data-name="Слой 1" xmlns="http://www.w3.org/2000/svg" viewBox="0 0 982.18 1151.48"><title>flag</title><path d="M355.71,0H457.17a33.92,33.92,0,0,1,33.92,33.92V982.18a0,0,0,0,1,0,0H321.79a0,0,0,0,1,0,0V33.92A33.92,33.92,0,0,1,355.71,0Z"/><rect x="598.73" y="708.66" width="169.3" height="982.18" rx="32.91" ry="32.91" transform="translate(1690.84 383.44) rotate(90)"/><path d="M1100.15,533.62c23.71,13.68,23.71,47.9,0,61.58L918.44,700.12,683.39,835.82V293L918.44,428.7Z" transform="translate(-192.3 -132.92)"/></svg>